Results
version=1
nRows=16
nColumns=21
inDegrees=yes
endheader
time	Thorax_pitch	Thorax_roll	Thorax_yaw	Thorax_Tx	Thorax_Ty	Thorax_Tz	L_shoulder_flex-ext	L_shoulder_adb-add	L_shoulder_LAR	L_elbow_flex-ext	L_forearm_pron-sup	L_wrist_flex-ext	L_MCP_flex-ext	R_shoulder_flex-ext	R_shoulder_adb-add	R_shoulder_LAR	R_elbow_flex-ext	R_forearm_pron-sup	R_wrist_flex-ext	R_MCP_flex-ext
      0.70000000	      0.00000000	      0.00000000	    178.89431178	      0.59871085	      0.05479855	      0.15518715	      0.00000000	      0.00000000	      0.00000000	    -63.29710287	     51.82572275	      0.00000000	      0.00000000	    -14.78041295	     -3.81239095	      3.33787782	    -41.92787877	     62.61866484	     24.28837467	    -16.04751966
      0.70010000	      0.00000000	      0.00000000	    178.87158602	      0.59864499	      0.05486153	      0.15513603	      0.00000000	      0.00000000	      0.00000000	    -63.33294175	     51.80626199	      0.00000000	      0.00000000	    -14.89198051	     -3.74726855	      3.42382822	    -42.04883086	     62.78209809	     24.19465437	    -15.85053526
      0.70020000	      0.00000000	      0.00000000	    178.85016692	      0.59856811	      0.05492273	      0.15509769	      0.00000000	      0.00000000	      0.00000000	    -63.36769914	     51.78754981	      0.00000000	      0.00000000	    -14.99786355	     -3.68850458	      3.50611657	    -42.16501913	     62.93969274	     24.10128806	    -15.65932260
      0.70030000	      0.00000000	      0.00000000	    178.83380876	      0.59849684	      0.05498449	      0.15505877	      0.00000000	      0.00000000	      0.00000000	    -63.40301492	     51.77009570	      0.00000000	      0.00000000	    -15.09791364	     -3.63331898	      3.58725648	    -42.27309670	     63.10150518	     24.00137630	    -15.45755436
      0.70040000	      0.00000000	      0.00000000	    178.82041142	      0.59842115	      0.05503889	      0.15502559	      0.00000000	      0.00000000	      0.00000000	    -63.43549400	     51.75279270	      0.00000000	      0.00000000	    -15.19067736	     -3.58092386	      3.66180521	    -42.37334099	     63.24580118	     23.91026027	    -15.28122467
      0.70050000	      0.00000000	      0.00000000	    178.81078503	      0.59834541	      0.05509345	      0.15499545	      0.00000000	      0.00000000	      0.00000000	    -63.46736483	     51.73630957	      0.00000000	      0.00000000	    -15.27717131	     -3.53272834	      3.73287262	    -42.46556284	     63.38670469	     23.81712357	    -15.10704772
      0.70060000	      0.00000000	      0.00000000	    178.80011138	      0.59826800	      0.05513767	      0.15496815	      0.00000000	      0.00000000	      0.00000000	    -63.49763270	     51.71975365	      0.00000000	      0.00000000	    -15.36478881	     -3.48374163	      3.80098751	    -42.55756847	     63.51934348	     23.72863837	    -14.94592228
      0.70070000	      0.00000000	      0.00000000	    178.78015206	      0.59818836	      0.05520269	      0.15492512	      0.00000000	      0.00000000	      0.00000000	    -63.53073659	     51.70356143	      0.00000000	      0.00000000	    -15.46757577	     -3.42585887	      3.87562652	    -42.66255959	     63.67606362	     23.62768401	    -14.75033654
      0.70080000	      0.00000000	      0.00000000	    178.77519457	      0.59810963	      0.05523888	      0.15491066	      0.00000000	      0.00000000	      0.00000000	    -63.55999197	     51.68856099	      0.00000000	      0.00000000	    -15.54171155	     -3.38767141	      3.93905104	    -42.74105904	     63.80256435	     23.53588677	    -14.59293878
      0.70090000	      0.00000000	      0.00000000	    178.77950216	      0.59802130	      0.05528404	      0.15489862	      0.00000000	      0.00000000	      0.00000000	    -63.58803580	     51.67450954	      0.00000000	      0.00000000	    -15.60099426	     -3.35588889	      3.99577034	    -42.80042876	     63.91781421	     23.44159017	    -14.44771489
      0.70100000	      0.00000000	      0.00000000	    178.77650696	      0.59795579	      0.05531917	      0.15487721	      0.00000000	      0.00000000	      0.00000000	    -63.61529589	     51.65954978	      0.00000000	      0.00000000	    -15.67883264	     -3.31353446	      4.05369017	    -42.87650173	     64.03464380	     23.35441684	    -14.30581217
      0.70110000	      0.00000000	      0.00000000	    178.76458684	      0.59787759	      0.05537784	      0.15484521	      0.00000000	      0.00000000	      0.00000000	    -63.64498532	     51.64493570	      0.00000000	      0.00000000	    -15.76764042	     -3.26478649	      4.11820116	    -42.96419532	     64.17225304	     23.25746803	    -14.13400789
      0.70120000	      0.00000000	      0.00000000	    178.77075012	      0.59775857	      0.05539619	      0.15485392	      0.00000000	      0.00000000	      0.00000000	    -63.66981171	     51.63199811	      0.00000000	      0.00000000	    -15.80633480	     -3.24654209	      4.16471585	    -43.00137068	     64.26422839	     23.16253420	    -14.01909399
      0.70130000	      0.00000000	      0.00000000	    179.00957266	      0.59760040	      0.05506236	      0.15527329	      0.00000000	      0.00000000	      0.00000000	    -63.64335347	     51.63940244	      0.00000000	      0.00000000	    -15.36874066	     -3.56085231	      3.77133149	    -42.36375999	     63.65936684	     22.85557782	    -14.72642572
      0.70140000	      0.00000000	      0.00000000	    178.97345387	      0.59751522	      0.05513241	      0.15518941	      0.00000000	      0.00000000	      0.00000000	    -63.67529762	     51.62264905	      0.00000000	      0.00000000	    -15.48949177	     -3.48548417	      3.85095366	    -42.48755288	     63.81244022	     22.76094558	    -14.54506439
      0.70150000	      0.00000000	      0.00000000	    178.93632083	      0.59741158	      0.05520978	      0.15513595	      0.00000000	      0.00000000	      0.00000000	    -63.70688019	     51.60535326	      0.00000000	      0.00000000	    -15.61291205	     -3.41561495	      3.95431976	    -42.62564706	     63.98796466	     22.62235085	    -14.40978023
